<?xml version="1.0" encoding="UTF-8" standalone="no"?>
<!-- Generator: Adobe Illustrator 22.0.1, SVG Export Plug-In . SVG Version: 6.00 Build 0)  -->

<svg
   xmlns:dc="http://purl.org/dc/elements/1.1/"
   xmlns:cc="http://creativecommons.org/ns#"
   xmlns:rdf="http://www.w3.org/1999/02/22-rdf-syntax-ns#"
   xmlns:svg="http://www.w3.org/2000/svg"
   xmlns="http://www.w3.org/2000/svg"
   xmlns:sodipodi="http://sodipodi.sourceforge.net/DTD/sodipodi-0.dtd"
   xmlns:inkscape="http://www.inkscape.org/namespaces/inkscape"
   version="1.1"
   id="Layer_1"
   x="0px"
   y="0px"
   viewBox="0 0 82.6 80.5"
   xml:space="preserve"
   sodipodi:docname="sakura.svg"
   inkscape:export-filename="\\vf-x240\program\SakuraManager\images\sakura.png"
   inkscape:export-xdpi="96"
   inkscape:export-ydpi="96"
   width="82.599998"
   height="80.5"
   inkscape:version="0.92.3 (2405546, 2018-03-11)"><metadata
   id="metadata21"><rdf:RDF><cc:Work
       rdf:about=""><dc:format>image/svg+xml</dc:format><dc:type
         rdf:resource="http://purl.org/dc/dcmitype/StillImage" /><dc:title></dc:title></cc:Work></rdf:RDF></metadata><defs
   id="defs19" /><sodipodi:namedview
   pagecolor="#000000"
   bordercolor="#666666"
   borderopacity="1"
   objecttolerance="10"
   gridtolerance="10"
   guidetolerance="10"
   inkscape:pageopacity="0"
   inkscape:pageshadow="2"
   inkscape:window-width="1060"
   inkscape:window-height="780"
   id="namedview17"
   showgrid="false"
   inkscape:zoom="2.931677"
   inkscape:cx="42.299999"
   inkscape:cy="40.25"
   inkscape:window-x="723"
   inkscape:window-y="86"
   inkscape:window-maximized="0"
   inkscape:current-layer="Layer_1"
   inkscape:pagecheckerboard="false" />
<style
   type="text/css"
   id="style2">
	.st0{fill:#F49AC1;}
</style>
<g
   id="g14"
   inkscape:export-xdpi="96"
   inkscape:export-ydpi="96">
	<path
   class="st0"
   d="m 42.3,37.9 c 0,0 12.6,-6.9 12.6,-19.5 C 54.9,11.2 51.6,2.6 47,0.1 L 42.4,4.7 37.6,0 c -4.7,2.5 -7.9,11.1 -7.9,18.3 0,12.6 12.6,19.6 12.6,19.6 z"
   id="path4"
   inkscape:connector-curvature="0"
   style="fill:#f49ac1" />
	<path
   class="st0"
   d="m 47.1,41.4 c 0,0 10.5,9.8 22.5,5.9 6.9,-2.2 14,-8 15,-13.2 l -5.9,-3 3,-5.9 c -3.8,-3.7 -13,-4.1 -19.9,-1.9 -11.9,4 -14.7,18.1 -14.7,18.1 z"
   id="path6"
   inkscape:connector-curvature="0"
   style="fill:#f49ac1" />
	<path
   class="st0"
   d="m 45.3,47.1 c 0,0 -6.1,13 1.3,23.2 4.2,5.8 12,10.9 17.2,10.2 l 1,-6.5 6.5,1 C 73.6,70.2 71.2,61.3 67,55.5 59.6,45.3 45.3,47.1 45.3,47.1 Z"
   id="path8"
   inkscape:connector-curvature="0"
   style="fill:#f49ac1" />
	<path
   class="st0"
   d="m 39.3,47.1 c 0,0 -14.3,-1.8 -21.7,8.4 C 13.4,61.3 11,70.2 13.3,75 l 6.5,-1 1,6.5 C 26,81.2 33.8,76.2 38,70.3 45.4,60.1 39.3,47.1 39.3,47.1 Z"
   id="path10"
   inkscape:connector-curvature="0"
   style="fill:#f49ac1" />
	<path
   class="st0"
   d="m 37.4,41.4 c 0,0 -2.7,-14.1 -14.7,-18 C 15.8,21.2 6.6,21.6 2.8,25.3 l 3,5.9 -5.9,3 c 0.9,5.2 8.1,11 15,13.2 12.1,3.8 22.5,-6 22.5,-6 z"
   id="path12"
   inkscape:connector-curvature="0"
   style="fill:#f49ac1" />
</g>
</svg>